# xmcd
#
# Track frame offsets:
#	182
#	22012
#	43950
#	69830
#	95027
#	120935
#	139990
#	162707
#	181575
#	200637
#	230490
#
# Disc length: 3375 seconds
#
# Revision: 4
# Processed by: cddbd v1.5.2PL0 Copyright (c) Steve Scherf et al.
# Submitted via: EZCDAudioConverter 4.0.4.2
#
DISCID=9b0d2d0b
DTITLE=Luther Allison - Rich Man
DYEAR=1995
DGENRE=Chicago Blues
TTITLE0=Chicago
TTITLE1=Rich Man
TTITLE2=Love Is Free
TTITLE3=Cold As Ice
TTITLE4=Freedom
TTITLE5=Fight
TTITLE6=Mistake
TTITLE7=Get Down
TTITLE8=Cry (Crying for Peace)
TTITLE9=You Don't Love Me
TTITLE10=Sweet Home Chicago
EXTD=
EXTT0=
EXTT1=
EXTT2=
EXTT3=
EXTT4=
EXTT5=
EXTT6=
EXTT7=
EXTT8=
EXTT9=
EXTT10=
PLAYORDER=
